<svg version="1" xmlns="http://www.w3.org/2000/svg" width="346.667" height="346.667" viewBox="0 0 260.000000 260.000000"><path d="M110.5 13.4c-2.8.8-3.5 1.4-2.5 1.9.8.4.4.5-.9.3-1.5-.3-3.8.3-5.7 1.5-5.7 3.5-5.9 5.1-4 33.7.9 14.1 1.9 28.3 2.3 31.4.5 5.6.5 5.8-1.8 5.9-2.1.1-2 .2.6.9 2 .5 2.4.8 1 .9-1.5.1-1.7.3-.6 1 1.7 1.1.2 2.1-4.8 3.2-2 .4-4.5.9-5.6 1.2-1.1.2-1.4.2-.7 0 .6-.3 1.2-.9 1.2-1.4 0-.5 1-1 2.3-1 1.7-.1 1.6-.3-.8-.8-3.4-.8-5.8-.3-4.9 1 .3.5-.4.9-1.5.9-1.2 0-2.1.4-2.1.9s-.8 1.2-1.7 1.5c-1 .3-2.9 1.3-4.3 2.1s-5.1 1.5-8.5 1.5c-4.5 0-5.6.3-4.5 1.1 1.1.8.6.9-2.1.6-2-.3-4.2-.1-4.9.3-.9.6.3 1 3.5 1.3 4.9.4 4.8.4-1 .5-8.6.1-9.4.2-7 1.2l2 .9-2 .1c-1.1.2-2.6.2-3.4.1-.7-.2-1 .2-.7.7.3.5-.3 1.2-1.3 1.5-1.1.2-2.7 1.9-3.6 3.7-1.5 2.9-1.5 3.3-.1 4.9 2.2 2.4 2 3.4-.5 2.8-1.9-.5-2.1-.2-1.7 2.7l.3 3.2-6.2-.4c-3.5-.3-10.1-.1-14.7.3-6.7.5-8.4 1-7.9 2.1.3.8 1.9 1.4 4 1.4 1.9 0 3.2-.4 2.9-.9-.7-1 18.4-2.4 20.7-1.5.9.3 1.4 1 1.1 1.5-.3.5.1.9.8.9.9 0 .9.3-.2 1-1.3.9-1.3 1 0 1 .9 0 1.1.3.5.8-1.5 1-1.5 7.2-.1 7.2.6 0 .4.5-.4 1s-1 1-.5 1c.6 0 1 1.7.9 3.7 0 2.1.5 4.1 1 4.5.7.5.5.8-.4.8-1.3 0-1.3.1 0 1 1.1.7-.2 1-4.5 1.1-4.7.2-5.2.3-2.5.8 3.4.5 3.4.5-1.5 1.1-4.6.6-4.3.7 2.9.8 7.8.2 7.9.2 6.1 2.2-1.7 1.9-1.7 2 0 2 1.6 0 1.6.2-.3 1.9-1.2 1-2.2 2.5-2.2 3.2 0 1.1.2 1.1 1-.1.8-1.2 1-.9 1 1.2 0 1.4-.6 2.9-1.2 3.1-.9.4-.8.6.2.6 2.6.2-7.3 4.5-11.5 5.1l-4 .5 5 1.7c2.8.9 4.2 1.7 3.3 1.7-1 .1-1.8.5-1.8 1.1 0 .5-.8 1-1.7 1-1.4 0-1.5.2-.4.9s1.1.9 0 1.4c-.8.3 2 .6 6.1.6 4.6.1 7 .5 6.1 1-1.1.7-1.1.9 0 1.4.9.3.7.6-.6.6-1.7.1-1.7.3-.5 1.1.8.5 1 1 .4 1s-1.1.7-1.1 1.5.6 1.5 1.4 1.5c1.1 0 1.8 2.6 1.4 5.3 0 .4.8.7 1.9.7 1.1 0 2 .4 2 1 0 .5.6 1 1.3 1 .7 0 1.9.9 2.7 2 .8 1.1 2.6 2 4 2.1 2.3.1 2.3.2.4.7-1.2.4-2 1.4-1.9 2.4.2.9-.3 2.2-1.1 2.9-2.4 2-1.5 3.2 1.1 1.5 2.7-1.8 4.9-2.1 4-.6-.4.6.7 1 2.4 1s3.1-.5 3.1-1c0-.6 1-1.1 2.3-1.1 1.8-.1 1.6-.3-.8-.9-2.6-.6-2.2-.8 2.5-1 4.1-.1 5-.4 3.5-1-1.9-.8-1.9-.9.3-.9 1.2-.1 2.2.3 2.2.9 0 .5.6 1 1.3 1 .8 0 1.4.7 1.4 1.5 0 1-1 1.5-2.6 1.4-2.4 0-2.4-.1-.6-.9 1.7-.7 1.4-.9-1.3-.9-1.8-.1-3.1.3-2.7.8.3.5-.3 1.2-1.2 1.4-1.3.3-1.2.5.5.6 1.3 0 2 .6 1.7 1.1-.3.5 0 1 .7 1.1.7.1.2.5-1.2.9s-1.8.8-.9.9c.9.1 1.6.8 1.6 1.6 0 1-1.2 1.5-3.6 1.6l-3.6.2 3.1.6c2.2.4 3 1.1 2.8 2.3-.1 1 .2 1.8.7 1.8.6 0 .8.4.5.9-.4.5 0 1.2.6 1.4 1.1.5-5.4 1.1-7.4.8-.5 0-.8.3-.8.9 0 .5-.7 1-1.5 1-1.6 0-1.6 2 0 3.2.6.4 0 .8-1.2.8-1.3 0-2.3.4-2.3.9 0 2.6-18.4 4.3-20.1 1.8-.4-.5-1.5-.4-2.7.2-1.1.6-3 1.1-4.1 1.1-1.2 0-2.1.3-2.1.7 0 1.1-4.9 3.3-7.4 3.4-1.5 0-1.7.2-.6.6.8.3 1.8 1 2.1 1.5.4.6 1.6.4 2.9-.4 1.8-1 2.4-1 2.7-.1.3.7 1.7 1.3 3.1 1.2 2.4 0 2.5-.1.7-.9-1.5-.6-.6-.9 3.5-1 3-.2 5.9-.2 6.3-.1.5.1.6-.2.4-.6-.3-.5.1-1.4.9-2.1.8-.7 1.4-.8 1.4-.2 0 .5.7 1 1.6 1 .8 0 1.2.5.9 1-.3.6.4 1.1 1.7 1.1 2.1.1 2 .2-.4.8-2 .4-2.5 1-1.9 2 .8 1.2 1.3 1.2 4 0 1.7-.8 3.1-1.7 3.1-2.1 0-.5 1.6-.8 3.6-.8 2.1 0 3.3.4 2.9 1-.4.6.7 1 2.5 1s2.9-.4 2.5-1c-.3-.6.1-1 1-1s1.3.4 1 1c-.3.5-.1 1 .5 1s.8.4.5 1c-.3.5.4 1.1 1.7 1.1 1.7.1 1.8.3.6.6-1 .2-1.8.9-1.8 1.5s-1.3.9-3.2.6c-1.8-.3-4.2-.2-5.3.3-1.5.6-.9.8 2.3.8 2.3.1 4.2.5 4.2 1.1 0 .5.9 1 2.1 1 1.1 0 1.7-.5 1.4-1-.6-1 3.5-1.5 8.3-1.1 1.2.1 2.2-.3 2.2-.9 0-.5.7-1 1.6-1 .8 0 2.1-.6 2.8-1.3 2.6-2.6-2.5-4.6-6-2.4-.7.4-1.4 0-1.8-.8-.3-.8-.2-1.4.2-1.4 3 .5 4.1-1.6 1.7-3.3-.5-.4 1.4-.8 4.3-.8 3.3 0 5.1.4 4.7 1-.4.6 1.8 1.1 5.7 1.2 6.9.1 13.4.5 24.8 1.2 5 .4 6.5.2 4.5-.3l-3-.9 3.3-.1c1.7 0 3.2.3 3.2.9 0 .6 3.5 1 8.5 1s8.5.4 8.5 1c0 .5 1.5 1 3.3 1 2.4 0 2.8-.3 1.7-1-1-.7 1.3-1 7.5-1.1 6.3-.1 8.1-.4 6-.9-3-.8-3-.8.8-.9 2.3-.1 3.6-.5 3.2-1.1-.3-.6.4-1 1.6-1 1.2 0 2-.3 1.7-.6-.4-.3.6-1.8 2.1-3.2 3.9-3.7 5.5-6.9 3.8-7.5-.7-.3-.5-.6.6-.6.9-.1 1.7-.6 1.7-1.1 0-.6 3.2-1 7.6-1 4.7 0 7.3-.4 6.9-1-.3-.6.2-1 1.2-1.1 1.3-.1 1.1-.3-.7-.9-1.9-.6-1.1-.8 3.5-1 4.6-.2 5.4-.4 3.5-1-2.2-.7-2.1-.8 1.3-.9 2.3-.1 3.6-.5 3.2-1.1-.3-.6.4-1 1.6-1 1.9 0 4.2-2 8.7-7.4.7-.9 1-1.6.7-1.6-.3 0-.2-.8.3-1.7.6-1 1.3-4.3 1.7-7.3 1.2-9.2 1.3-10.4 1.9-12.7.3-1.3.8-3.2 1-4.3.3-1.1.8-2.5 1.1-3 .3-.6.2-1-.3-1-1.3 0-.9-6.3.5-7.7.6-.7 1.9-1.3 2.8-1.3 1.2 0 1.4-.4.6-1.9-.6-1-.7-2.1-.4-2.5.3-.3-.1-.6-1-.6-1.2 0-1.4-.7-1.1-2.7.9-5.2 2.6-8.3 4.6-8.3 1 0 1.6.4 1.3 1-.8 1.3 3.9 1.3 6.5 0 1.1-.6 2.9-1.5 4-2 2.9-1.5 9.1-1.3 8.8.2-.2.7-.7 1.6-1.3 2-.5.4.3.8 1.9.8 3.5 0 9.6 2.1 9.6 3.2 0 .4.7.8 1.5.8.9 0 1.5-.9 1.5-2.5 0-1.9-.5-2.5-2.1-2.5-1.1 0-1.7-.4-1.4-1 .3-.6-.3-1-1.5-1s-1.8-.5-1.5-1c.3-.6-.3-1-1.5-1s-2.9-.7-3.8-1.6c-1.5-1.5-1.3-1.6 1.5-1 4.6 1 4.9-.9.4-2.3-4.7-1.3-6.1-1.4-4.1-.1 1.2.8-4.9 1.3-12.5 1-.3 0-1.5.9-2.7 2-1.2 1.1-3.1 2-4.2 2-1.2 0-1.6-.4-1.1-.8.6-.4 1.1-1.8 1.3-3.2.1-1.4.5-5 .8-8 .3-3 .7-6.4.9-7.5.2-1.1.4-2.3.4-2.6.1-.4.7-.7 1.4-.6 3.5.1 4.6-.4 4.1-1.8-.7-1.7-4.4-2.1-4.4-.5 0 .5-1.1 1-2.4 1-1.4 0-2.8.4-3.1 1-.3.5-3.2 1.1-6.3 1.1-5.5.2-5.6.2-1.7.9 3.6.6 3.7.7 1 .9-2.6.2-2.7.3-1 1.1 1.1.5 1.5.9.9.9-1.5.1-6.4-2.3-6.4-3.2 0-.4-1-.7-2.2-.8-2.2 0-2.2-.1-.3-.9 1.3-.6-1.2-.8-7-.8-4.9.1-7.4.3-5.5.5 4.2.4 11.1 2.3 12.5 3.5.5.4-1.5.1-4.5-.8-6.6-2-18.1-1.6-22.8.8-1.8.9-3 1.2-2.6.7.9-1.4 7.3-3.9 10.8-4.1 1.7-.1-.3-.4-4.4-.8-6.7-.6-6.9-.7-2.5-.9 3.8-.2 4.5-.4 3-1.1-1.5-.6-.6-.9 3.2-.9 2.8-.1 5.5.3 5.8.9.4.6 5.9.9 13.8.8l13.2-.2-10.5-.6-10.5-.6 10.5-.3c7.6-.3 9.5-.6 7-1.1l-3.5-.7 3.2-.2c3.6-.1 7.9-1.7 10.5-3.9 1.6-1.3 1.8-1.3 1.8.1 0 1.4 2 1.6 15 1.9 8.3.2 15 0 15-.5 0-.4-6.5-.7-14.5-.7H231v-3c0-6.5-6.5-16.5-9.8-15.3-1 .4-1.3.2-.8-.6.4-.6.4-1.1-.1-1-2.2.4-4.4-.2-3.8-1.1.3-.5-2-1.7-5.1-2.6-7.4-2.1-13.6-1.4-22.4 2.7-4 1.8-7.8 2.9-9 2.6-2.4-.6-2.7.9-.2 1.6 1.9.6-20-.1-23.3-.6-1.1-.2-1.9-.8-1.7-1.3.2-.4-.5-1.1-1.5-1.5-1-.4 2.5-.7 7.7-.7 7.4.1 8.5.3 5 .8-3.8.6-4 .7-1.3.8 1.7.1 3.5.6 3.8 1.2.3.5 2.1.9 3.8.9 1.8-.1 2.4-.3 1.4-.6-.9-.2-1.5-.9-1.2-1.4.4-.5.1-.9-.6-.9s-.9-.3-.6-.7c1-.9-7.3-4.4-8.6-3.6-.6.3-.7.1-.3-.5.4-.7.3-1.2-.3-1.2-.5 0-1.2.6-1.4 1.2-.4 1-.6 1-.6 0-.1-.6-1.3-1.2-2.8-1.3-2.5 0-2.6-.1-.8-.9 1.4-.6 1.6-.9.5-1-.8-.2-1.8-.2-2.1-.2-.4.1-.5-.8-.2-1.8.5-1.8 0-2-3.8-2.1l-4.4-.2 4-.6 3.9-.6 3.8-23.5c3.7-23.7 4.7-34.7 2.8-33.5-.5.3-.7 0-.4-.8.3-.9-1.1-2.8-3.6-5-5.2-4.4-13.8-6.9-25.5-7.2-4.9-.2-7.6-.1-5.8.1 1.7.3 3.4 1.1 3.6 1.8.4.9 0 1.2-1.2.9-1.3-.3-2 .3-2.5 2.1-.9 3.5-2.5 3.3-3.2-.4-.7-3.1-3-4-5.1-1.9-.8.8-1.7.8-2.9.1-1.6-.9-1.4-1.2 1.6-2 2.8-.8 3-1 1-1-1.4 0-4.3.5-6.5 1.2zm25.5 4.3c0 2.1-.3 2.4-.9 1.4-.5-.8-.7-2-.4-2.8.8-2.1 1.3-1.5 1.3 1.4zm-9.3 3.9c-.3.3-1.2.4-1.9.1-.8-.3-.5-.6.6-.6 1.1-.1 1.7.2 1.3.5zm.8 2.4c-.3.5 0 1 .7 1.1.7 0 .2.4-1 1-1.5.6-3 .5-4-.1-1.4-.8-1.3-.9.8-1 2 0 2.2-.2 1-1-1.2-.8-1-1 .8-1 1.3 0 2 .4 1.7 1zm10.2-.4c-.3.3-1.2.4-1.9.1-.8-.3-.5-.6.6-.6 1.1-.1 1.7.2 1.3.5zm-20 2c-.3.3-1.2.4-1.9.1-.8-.3-.5-.6.6-.6 1.1-.1 1.7.2 1.3.5zm-16 8c-.3.3-1.2.4-1.9.1-.8-.3-.5-.6.6-.6 1.1-.1 1.7.2 1.3.5zm9.8 2.9c4 .9 5 1.4 3 1.4-1.6 0-5-.6-7.5-1.3-5.7-1.8-3.3-1.9 4.5-.1zm38.8 1.2c-.7.2-1.9.2-2.5 0-.7-.3-.2-.5 1.2-.5s1.9.2 1.3.5zm-10.4 1.9c.8.8-17.5.2-19.9-.6-1.4-.4 2.5-.5 8.5-.2 6.1.2 11.2.6 11.4.8zm-31.6 18.1c-.7.2-1.9.2-2.5 0-.7-.3-.2-.5 1.2-.5s1.9.2 1.3.5zm45.4-.1c-.3.3-1.2.4-1.9.1-.8-.3-.5-.6.6-.6 1.1-.1 1.7.2 1.3.5zm-44 2c-.3.3-1.2.4-1.9.1-.8-.3-.5-.6.6-.6 1.1-.1 1.7.2 1.3.5zm-.4 2.1c-.7.2-2.1.2-3 0-1-.3-.4-.5 1.2-.5 1.7 0 2.4.2 1.8.5zm8.4-.1c-.3.3-1.2.4-1.9.1-.8-.3-.5-.6.6-.6 1.1-.1 1.7.2 1.3.5zm-8.4 2.1c-.7.2-2.1.2-3 0-1-.3-.4-.5 1.2-.5 1.7 0 2.4.2 1.8.5zm43.4-.1c-.3.3-1.2.4-1.9.1-.8-.3-.5-.6.6-.6 1.1-.1 1.7.2 1.3.5zm-1 2c-.3.3-1.2.4-1.9.1-.8-.3-.5-.6.6-.6 1.1-.1 1.7.2 1.3.5zm-46 4c-.3.3-1.2.4-1.9.1-.8-.3-.5-.6.6-.6 1.1-.1 1.7.2 1.3.5zm3 2c-.3.3-1.2.4-1.9.1-.8-.3-.5-.6.6-.6 1.1-.1 1.7.2 1.3.5zm44 2c-.3.3-1.2.4-1.9.1-.8-.3-.5-.6.6-.6 1.1-.1 1.7.2 1.3.5zm-8 2c-.3.3-1.2.4-1.9.1-.8-.3-.5-.6.6-.6 1.1-.1 1.7.2 1.3.5zm6.6 2.1c-.7.2-1.9.2-2.5 0-.7-.3-.2-.5 1.2-.5s1.9.2 1.3.5zm-3 2c-.7.2-2.1.2-3 0-1-.3-.4-.5 1.2-.5 1.7 0 2.4.2 1.8.5zm-10.6 1.9c-.3.3-1.2.4-1.9.1-.8-.3-.5-.6.6-.6 1.1-.1 1.7.2 1.3.5zm12 0c-.3.3-1.2.4-1.9.1-.8-.3-.5-.6.6-.6 1.1-.1 1.7.2 1.3.5zm-42 2c-.3.3-1.2.4-1.9.1-.8-.3-.5-.6.6-.6 1.1-.1 1.7.2 1.3.5zm36 0c-.3.3-1.2.4-1.9.1-.8-.3-.5-.6.6-.6 1.1-.1 1.7.2 1.3.5zm7.8 2.4l-2 .9 2 .1c1.7.2 1.6.3-.5 1-2.4.8-2.4.8-.2.9 1.2.1 2.2.5 2.2 1 0 .6 1.5 1.2 3.3 1.4 2.3.3 1.7.5-2.3.7-4.8.3-4.4.5 3.5 1l9 .6-9.3.2c-5.9.1-9.1.6-8.7 1.2.4.6-1.1 1.1-3.7 1.2l-4.3.1 4.5.7 4.5.7-4.5.3-4.5.3 4 .7 4 .7-4.6.2c-4.4.1-4.6 0-4.4-2.7.1-2.1-.4-2.8-2.4-3.3-1.8-.5-.8-.7 3-.8 4.2-.1 5.6-.5 5.6-1.6 0-1-1-1.5-2.6-1.4-2.4 0-2.4.1-.6.9 1.4.6.4.8-3.5.8-4.3-.1-4.7-.2-2-.6l3.5-.5-3.5-.7-3.5-.7 3.5-.3 3.5-.3-3.5-.7-3.5-.7 3.8-.2c2 0 3.7-.6 3.7-1.1 0-.6 2.7-1 6.3-.9 4.4 0 5.6.3 4.2.9zm-38.9 2.8c-.2.9.2 2 .8 2.4.6.4-.5.8-2.4.8-2.6 0-3.1.3-2 1s.3 1-3 1-4.1-.3-3-1c1.3-.8 1.2-1-.5-1.1-1.7-.1-1.7-.2-.2-.6.9-.2 1.5-.8 1.2-1.3-.7-1.1 1-2.1 4.9-3 3.8-.8 4.5-.5 4.2 1.8zm5.4-.8c-1.3.9-1.3 1 0 1s1.3.2.1.9c-1.1.7-1 1 .5 1.4 1.4.3 1.2.5-.7.6-2.3.1-2.6-.2-2.1-2.4.2-1.5 1.1-2.5 2.1-2.5 1.4 0 1.4.2.1 1zm11.7 1.6c-.3.3-1.2.4-1.9.1-.8-.3-.5-.6.6-.6 1.1-.1 1.7.2 1.3.5zm-12.4 4.1c-.7.2-2.1.2-3 0-1-.3-.4-.5 1.2-.5 1.7 0 2.4.2 1.8.5zm90 0c-1.8.2-4.8.2-6.5 0-1.8-.2-.4-.4 3.2-.4s5 .2 3.3.4zm-102.6 1.9c-.3.3-1.2.4-1.9.1-.8-.3-.5-.6.6-.6 1.1-.1 1.7.2 1.3.5zm11.6.1c-.7.2-1.9.2-2.5 0-.7-.3-.2-.5 1.2-.5s1.9.2 1.3.5zm20 0c-.7.2-1.9.2-2.5 0-.7-.3-.2-.5 1.2-.5s1.9.2 1.3.5zm57.4-.1c-.3.3-1.2.4-1.9.1-.8-.3-.5-.6.6-.6 1.1-.1 1.7.2 1.3.5zm16.9.3c.5.5 1.8 1.2 2.9 1.5 1.1.3.2.3-2 0-4.1-.6-4.1.9 0 1.9 1.1.3-2.3.5-7.5.5-6.1 0-8.6-.3-7-.8 2.4-.8 2.3-.8-.8-.9-2-.1-3.1.3-2.7.9.3.5-.3 1-1.4 1-1.4 0-1.9-.5-1.5-1.5.4-.8 1.6-1.5 2.8-1.5 1.1 0 2.8-.5 3.6-1 1.9-1.2 12.3-1.3 13.6-.1zm-74.9 1.7c-.3.3-1.2.4-1.9.1-.8-.3-.5-.6.6-.6 1.1-.1 1.7.2 1.3.5zm-5.2 2.4c.3.5 3 1.1 5.8 1.2l5.2.1-5 .7c-4.9.6-4.9.6-1.5 1.1 2 .3 0 .6-4.5.6-6.6 0-7.2-.1-3.5-.7l4.5-.7-5-.3-5-.3 4.5-.5c3.5-.3 4.1-.6 2.5-1.2-1.6-.7-1.7-.9-.3-.9.9-.1 2 .3 2.3.9zm90.2-.4c-.3.3-1.2.4-1.9.1-.8-.3-.5-.6.6-.6 1.1-.1 1.7.2 1.3.5zm-140.4 2.1c-.7.2-1.9.2-2.5 0-.7-.3-.2-.5 1.2-.5s1.9.2 1.3.5zm68 0c-.7.2-1.9.2-2.5 0-.7-.3-.2-.5 1.2-.5s1.9.2 1.3.5zm16.5 0c-1 .2-2.8.2-4 0-1.3-.2-.5-.4 1.7-.4 2.2-.1 3.2.1 2.3.4zm25.9-.1c-.3.3-1.2.4-1.9.1-.8-.3-.5-.6.6-.6 1.1-.1 1.7.2 1.3.5zm4 0c-.3.3-1.2.4-1.9.1-.8-.3-.5-.6.6-.6 1.1-.1 1.7.2 1.3.5zm-107.7 2c0 .2-2.1.4-4.7.3-3.7-.1-4.2-.3-2.3-.8 2.4-.7 7-.3 7 .5zm-17 1c0 .2-1.1.4-2.5.4s-2.5-.4-2.5-.9c0-.4 1.1-.6 2.5-.3 1.4.2 2.5.6 2.5.8zm71.7-1c-.3.3-1.2.4-1.9.1-.8-.3-.5-.6.6-.6 1.1-.1 1.7.2 1.3.5zm6.6.1c-.7.2-1.9.2-2.5 0-.7-.3-.2-.5 1.2-.5s1.9.2 1.3.5zm-84.4 1.7c-1 .9-7.9 1.4-7.9.5 0-.5 1.9-.9 4.2-.9 2.3 0 3.9.2 3.7.4zm13.4.3c-.7.2-2.1.2-3 0-1-.3-.4-.5 1.2-.5 1.7 0 2.4.2 1.8.5zm10.4-.1c-.3.3-1.2.4-1.9.1-.8-.3-.5-.6.6-.6 1.1-.1 1.7.2 1.3.5zm47.6.1c-1.8.2-4.8.2-6.5 0-1.8-.2-.4-.4 3.2-.4s5 .2 3.3.4zm11 0c-.7.2-2.1.2-3 0-1-.3-.4-.5 1.2-.5 1.7 0 2.4.2 1.8.5zm-13 2c-2.4.2-6.2.2-8.5 0-2.4-.2-.5-.4 4.2-.4s6.6.2 4.3.4zm13.4-.1c-.3.3-1.2.4-1.9.1-.8-.3-.5-.6.6-.6 1.1-.1 1.7.2 1.3.5zm-9 2c-.3.3-1.2.4-1.9.1-.8-.3-.5-.6.6-.6 1.1-.1 1.7.2 1.3.5zm9 0c-.3.3-1.2.4-1.9.1-.8-.3-.5-.6.6-.6 1.1-.1 1.7.2 1.3.5zm76.6.9c-.3.9-.8 1.4-1 1.1-.3-.3-.2-.9.2-1.5.9-1.6 1.5-1.3.8.4zM108 111c0 .5-.5 1-1.1 1-.5 0-.7-.5-.4-1 .3-.6.8-1 1.1-1 .2 0 .4.4.4 1zm28.5 1.4c3.6 1.3 3.7 1.4 1.5 1.9-1.4.2-.1.6 3 .7l5.5.3-4.5.7c-4.4.7-4.4.7-1 1l3.5.3-3.5.7c-2 .4-2.6.8-1.4.9 2.1.1 3 3 1 3.2-.6 0-.2.4.9.9 1.6.7 1.1.9-2 .9s-3.6-.2-2-.9c1.5-.7.8-.9-3-1.1-4.8-.2-4.9-.2-1.5-.9l3.5-.7-4-.2c-3-.1-3.6-.4-2.5-1.1 1.1-.7.4-1-2.5-1s-3.6.3-2.5 1 .5 1-2.5 1.1l-4 .2 3.5.7c1.9.4 2.8.8 2 .9-1.3.1-1.3.2 0 1.1 1.3.9 1.3 1 0 1s-1.3.1 0 1c1.1.7-.4 1-5 1.1-3.6.1-5.2.4-3.6.6 2 .3 2.5.7 1.7 1.3-.9.5-.3.7 1.4.7 1.9 0 2.3-.2 1.4-.8-1-.6-.5-.9 1.4-.9 1.8 0 2.6.4 2.1 1.1-.4.8 1 1 4.7.9 3-.1 6.8-.2 8.4 0 2.5.1 2 .4-2.5 1.5-6.5 1.7-18.4 2-17.5.5.3-.6-.1-1-.9-1-.9 0-1.6-.5-1.6-1 0-.6-.7-1-1.5-1s-1.5-.5-1.5-1c0-.6-1-1-2.2-1-1.3 0-1.8.4-1.3.8 1.3 1 1.7 3.2.6 3.2-1.4 0-2.4-2-2.6-4.7 0-1.8.5-2.3 2.5-2.4 2-.1 1.8-.3-1-.9-1.9-.4-2.9-.8-2.2-.9.7 0 1.1-.5.8-.9-.2-.4-.1-1.4.5-2.2.6-1 .9-1.1.9-.3 0 .7.6 1.3 1.4 1.3.9 0 1.3-.7 1.1-2-.3-1.8.2-2 5.3-2.1 4.7-.1 5.2-.3 2.7-.9-1.6-.4-2.5-.8-2-1 .6-.1.1-.5-1-1-3.5-1.5 17.6-1.1 22 .4zm91-.4c-.3.5-1.6 1.5-2.8 2.1l-2.2 1.2 2-2.1c2.1-2.2 4.1-3 3-1.2zm-7 1c-.3.5-1.4 1-2.3.9-1.4 0-1.3-.2.3-.9 2.7-1.1 2.7-1.1 2 0zm-39.1 3.5c-1 .8-2.3 1.5-2.8 1.5-.6 0-.1-.7 1-1.5 1-.8 2.3-1.5 2.8-1.5.6 0 .1.7-1 1.5zm32.9-.8c-1.3.2-3.3.2-4.5 0-1.3-.2-.3-.4 2.2-.4s3.5.2 2.3.4zm7.4-.1c-.3.3-1.2.4-1.9.1-.8-.3-.5-.6.6-.6 1.1-.1 1.7.2 1.3.5zm-60 4c-.3.3-1.2.4-1.9.1-.8-.3-.5-.6.6-.6 1.1-.1 1.7.2 1.3.5zm9.6.1c-1.3.2-3.3.2-4.5 0-1.3-.2-.3-.4 2.2-.4s3.5.2 2.3.4zm28.4-.1c-.3.3-1.2.4-1.9.1-.8-.3-.5-.6.6-.6 1.1-.1 1.7.2 1.3.5zM145 121c0 .5-.5 1-1.1 1-.5 0-.7-.5-.4-1 .3-.6.8-1 1.1-1 .2 0 .4.4.4 1zm-10.7 2.7c-.7.2-2.1.2-3 0-1-.3-.4-.5 1.2-.5 1.7 0 2.4.2 1.8.5zm8 2c-2.4.2-6.2.2-8.5 0-2.4-.2-.5-.4 4.2-.4s6.6.2 4.3.4zm36.4-.1c-.3.3-1.2.4-1.9.1-.8-.3-.5-.6.6-.6 1.1-.1 1.7.2 1.3.5zm-36.9 2.1c-1.6.2-4 .2-5.5 0-1.6-.2-.3-.4 2.7-.4s4.3.2 2.8.4zm-95.5 2c-.7.2-1.9.2-2.5 0-.7-.3-.2-.5 1.2-.5s1.9.2 1.3.5zm12 0c-.7.2-2.1.2-3 0-1-.3-.4-.5 1.2-.5 1.7 0 2.4.2 1.8.5zm19 0c-.7.2-1.9.2-2.5 0-.7-.3-.2-.5 1.2-.5s1.9.2 1.3.5zm119.5 0c-1.6.2-4 .2-5.5 0-1.6-.2-.3-.4 2.7-.4s4.3.2 2.8.4zm-149.5 2c-.7.2-2.1.2-3 0-1-.3-.4-.5 1.2-.5 1.7 0 2.4.2 1.8.5zm0 2c-.7.2-1.9.2-2.5 0-.7-.3-.2-.5 1.2-.5s1.9.2 1.3.5zm65.2.2c-.3.5.5 1.2 1.7 1.4 2 .4 1.9.4-.4.6-1.6 0-2.8-.3-2.8-.8s-.8-1.2-1.7-1.4c-1.1-.3-.7-.5 1-.6 1.6 0 2.6.3 2.2.8zm30.8-.2c-.7.2-1.9.2-2.5 0-.7-.3-.2-.5 1.2-.5s1.9.2 1.3.5zm4.1.6c-.2.7-1.7 2-3.2 3l-2.7 1.6 4 .1c2.2 0 4.8.7 5.8 1.4 1.8 1.4 1.8 1.4 0 1.9-1 .3.2.5 2.7.6 2.5.1 6.1.7 8 1.4 4.8 1.7 10.3 4.7 9.7 5.3-.2.3-2-.4-3.8-1.4-4.7-2.7-13-4.5-17.1-3.7-1.8.4-5.1 1-7.3 1.5-2.2.4-3.3.9-2.5 1 .9.1.4.5-1 1-2.2.7-2.1.8 1.3.9 2.3.1 3.6-.3 3.2-.9-.4-.6 1.4-.9 4.7-.8 4 .1 4.4.2 1.8.5-1.9.3-3.9.9-4.4 1.4-.6.5-3.7 1-7 1.1l-6.1.1 5 .7 5 .7-6.4.1c-6.3.2-6.4.2-4.3-1.7 1.2-1 1.9-2.1 1.5-2.5-.3-.3.2-.7 1.3-.7 1.2-.1.7-.4-1.1-.9-2.7-.7-2.5-.8 2-1l5-.3-4.5-.7-4.5-.7 6-.2c4.1-.2 5.4-.5 4-1l-2-.8 2-.5c1.1-.3 0-.7-2.5-.8-2.5-.2-3.5-.5-2.2-.7 1.2-.2 2.2-.9 2.2-1.4 0-.5.7-.9 1.5-.9s1.5-.3 1.5-.8c0-.4 1-1.2 2.3-1.8 1.2-.7 2.3-1.2 2.4-1.3.1 0 0 .5-.3 1.2zm-8.4.5c0 .4-1.9.9-4.2.9l-4.3.1 3.5-.8c5.1-1.1 5-1.1 5-.2zm-17 1.7c1 1.2 1 1.5-.1 1.5s-1.1.2.1 1c1.1.7-.5 1-5.2 1-3.8 0-6.8-.4-6.8-.9s-.8-1.2-1.7-1.4c-1-.3.8-.5 4-.6 3.6-.1 5.6-.5 5.2-1.1-1-1.6 3.1-1.1 4.5.5zm-74.3 1.1c-.3.3-1.2.4-1.9.1-.8-.3-.5-.6.6-.6 1.1-.1 1.7.2 1.3.5zm3 2c-.3.3-1.2.4-1.9.1-.8-.3-.5-.6.6-.6 1.1-.1 1.7.2 1.3.5zm42.1.1c-1.5.2-4.2.2-6 0-1.8-.2-.6-.4 2.7-.4 3.3 0 4.8.2 3.3.4zm3.7 2c-5 .4-12.6 2.3-14.2 3.5-.7.6-1.8.8-2.5.5-.8-.4-.7-.6.5-.6.9-.1 1.7-.6 1.7-1.1 0-.6 1-1 2.3-1.1 2.1 0 2.1-.1.2-.9-1.3-.6 1.2-.8 7-.8 5 .1 7.2.3 5 .5zm17.5.2c0 .5.8 1.2 1.8 1.4 1 .3.6.5-1.1.6-1.6 0-2.6-.3-2.2-.8.3-.5-.9-1.2-2.7-1.4-3.3-.4-3.3-.4.5-.5 2-.1 3.7.2 3.7.7zm-4.2 2.2c.2.5 1.3.9 2.5 1 1.2 0 1.6.3.9.6-.7.3-2.7-.2-4.5-1-1.8-.8-4.1-1.8-5.2-2.1-1.1-.3-.2-.3 2 0s4.2 1 4.3 1.5zm63.9-.5c-.3.3-1.2.4-1.9.1-.8-.3-.5-.6.6-.6 1.1-.1 1.7.2 1.3.5zm5.1 1.3c1.5 1 3.4 2.1 4.2 2.4 1.2.4 1.2.6-.2.6-.9.1-2-.4-2.3-.9-.3-.6-2.1-1-3.8-.9-2.7 0-2.9.2-1.2.9 1.8.8 1.8.9.2.9-1 .1-2.5-.6-3.3-1.4-1.4-1.3-1.2-1.5 1.8-1.5 2.5 0 2.9-.3 1.8-1-.8-.5-1.1-1-.7-1 .5 0 2.1.8 3.5 1.9zm-60.1.7c-.3.3-1.2.4-1.9.1-.8-.3-.5-.6.6-.6 1.1-.1 1.7.2 1.3.5zm98.8.7c-.6 1.4-4.8 3.4-9 4.1-2.6.5-2.5.4.6-.7 1.9-.6 4.6-2 6-2.9 3-2.1 2.9-2.1 2.4-.5zm-170 .7c.3.6-.4 1-1.7 1-1.8 0-2-.2-.8-1 1.9-1.2 1.8-1.2 2.5 0zm111.2 1.6c-.3.3-1.2.4-1.9.1-.8-.3-.5-.6.6-.6 1.1-.1 1.7.2 1.3.5zm-108.9 1.1c-1 .2-2.6.2-3.5 0-1-.3-.2-.5 1.7-.5s2.7.2 1.8.5zm139.9-.1c-.3.3-1.2.4-1.9.1-.8-.3-.5-.6.6-.6 1.1-.1 1.7.2 1.3.5zm10.9 2.2c-2.7.2-5.2 0-5.7-.5-.4-.4 1.8-.6 4.9-.3l5.7.5-4.9.3zm-33.5.9c1.3 1.6 1.2 1.7-.3.4-1.7-1.3-2.2-2.1-1.4-2.1.2 0 1 .8 1.7 1.7zm-52.4.9c-.3.3-1.2.4-1.9.1-.8-.3-.5-.6.6-.6 1.1-.1 1.7.2 1.3.5zm24.6.1c-1.8.2-4.8.2-6.5 0-1.8-.2-.4-.4 3.2-.4s5 .2 3.3.4zm-24 2c-.7.2-1.9.2-2.5 0-.7-.3-.2-.5 1.2-.5s1.9.2 1.3.5zm22.4-.1c-.3.3-1.2.4-1.9.1-.8-.3-.5-.6.6-.6 1.1-.1 1.7.2 1.3.5zm-23 2c-.3.3-1.2.4-1.9.1-.8-.3-.5-.6.6-.6 1.1-.1 1.7.2 1.3.5zm22 0c-.3.3-1.2.4-1.9.1-.8-.3-.5-.6.6-.6 1.1-.1 1.7.2 1.3.5zm-22 2c-.3.3-1.2.4-1.9.1-.8-.3-.5-.6.6-.6 1.1-.1 1.7.2 1.3.5zm3.7 2.7c-.6 1.7-8 5.7-10.2 5.7-1-.1-.2-.7 1.5-1.5 1.8-.8 4.3-2.3 5.5-3.4 2.5-2.4 4-2.7 3.2-.8zm20.3-.7c-.3.3-1.2.4-1.9.1-.8-.3-.5-.6.6-.6 1.1-.1 1.7.2 1.3.5zm1.6 2.1c-.7.2-1.9.2-2.5 0-.7-.3-.2-.5 1.2-.5s1.9.2 1.3.5zm-61.9 2.1c.8 1.3 10.4 3.2 17.6 3.5 6.2.3 6.1.3-1.5.5s-12.5-.9-17-3.5c-1.1-.7-1.5-1.3-.8-1.3.6 0 1.4.4 1.7.8zm59.4 1c6.9 4.7 23.8 5.8 31.7 2.1 2.5-1.2 4.8-2.5 5.1-3 .9-1.5 2.4-1 1.8.6-.4.8-1.3 1.5-2.1 1.5s-1.1.4-.8 1c.4.6-.5 1-2 1-1.4 0-2.4.4-2.1.9.7 1-5.8 2.2-11.9 2.3-5.9 0-14.5-1.3-14.5-2.3 0-.5-1-.9-2.2-.9-2.3-.1-7.1-2.9-5.2-3.1.5-.1-.2-.5-1.6-.9-1.8-.6-2-.8-.7-.9 1.1-.1 3.1.7 4.5 1.7zm-95.5 10.9c-.7.2-1.9.2-2.5 0-.7-.3-.2-.5 1.2-.5s1.9.2 1.3.5zm-1 4c-1.3.2-3.3.2-4.5 0-1.3-.2-.3-.4 2.2-.4s3.5.2 2.3.4zm57 2c-.7.2-2.1.2-3 0-1-.3-.4-.5 1.2-.5 1.7 0 2.4.2 1.8.5zm95.4 23.5c-.3.8-.6.5-.6-.6-.1-1.1.2-1.7.5-1.3.3.3.4 1.2.1 1.9zm-119 4.4c-.3.3-1.2.4-1.9.1-.8-.3-.5-.6.6-.6 1.1-.1 1.7.2 1.3.5zm89.9 4.9c-3.2 1.7-18.6 2.1-18.6.6 0-.6 3-1 6.6-1 3.6 0 6.9-.2 7.2-.5.3-.3 2.1-.6 4.1-.6h3.6l-2.9 1.5zm-81.9 1.1c-.3.3-1.2.4-1.9.1-.8-.3-.5-.6.6-.6 1.1-.1 1.7.2 1.3.5zm75.1 2.1c-1 .2-2.6.2-3.5 0-1-.3-.2-.5 1.7-.5s2.7.2 1.8.5zm-84.7 3c1.3 1.6 1.2 1.7-.3.4-1-.7-1.8-1.5-1.8-1.7 0-.8.8-.3 2.1 1.3zm112.6-1.1c-.3.3-1.2.4-1.9.1-.8-.3-.5-.6.6-.6 1.1-.1 1.7.2 1.3.5zm-115 6c-.3.3-1.2.4-1.9.1-.8-.3-.5-.6.6-.6 1.1-.1 1.7.2 1.3.5zm4 4.9c0 1-1 1.5-3.1 1.4-2.6-.2-2.7-.2-.7-.6 1.9-.4 2.1-.7 1-1.4s-.9-.9.7-.9c1.2 0 2.1.6 2.1 1.5zm90.3.3c0 1.3-12.7 3.5-15.6 2.8-4.4-1.1-1.5-2.5 6.1-2.9 3.9-.1 7.6-.4 8.3-.5.6-.1 1.2.2 1.2.6zm-34.7 6.9c-.7.2-1.9.2-2.5 0-.7-.3-.2-.5 1.2-.5s1.9.2 1.3.5z"/><path d="M143.8 86.7c1.2.2 3 .2 4 0 .9-.3-.1-.5-2.3-.4-2.2 0-3 .2-1.7.4zM143.3 88.7c.9.2 2.5.2 3.5 0 .9-.3.1-.5-1.8-.5-1.9 0-2.7.2-1.7.5zM148.8 90.7c.6.2 1.8.2 2.5 0 .6-.3.1-.5-1.3-.5-1.4 0-1.9.2-1.2.5zM143.3 94.7c.9.2 2.3.2 3 0 .6-.3-.1-.5-1.8-.5-1.6 0-2.2.2-1.2.5zM107.5 88.9l2 .8-2 .5c-1.6.5-1.4.6.8.7 1.8.1 2.7-.4 2.7-1.4 0-1-.9-1.5-2.7-1.4-2.4 0-2.5.1-.8.8zM124.8 112.7c.7.3 1.6.2 1.9-.1.4-.3-.2-.6-1.3-.5-1.1 0-1.4.3-.6.6zM124.8 114.7c.7.3 1.6.2 1.9-.1.4-.3-.2-.6-1.3-.5-1.1 0-1.4.3-.6.6zM124.8 116.7c.6.2 1.8.2 2.5 0 .6-.3.1-.5-1.3-.5-1.4 0-1.9.2-1.2.5zM115.8 120.7c.7.3 1.6.2 1.9-.1.4-.3-.2-.6-1.3-.5-1.1 0-1.4.3-.6.6zM115.3 122.7c.9.2 2.5.2 3.5 0 .9-.3.1-.5-1.8-.5-1.9 0-2.7.2-1.7.5zM107.8 124.7c.6.2 1.8.2 2.5 0 .6-.3.1-.5-1.3-.5-1.4 0-1.9.2-1.2.5zM114.8 124.7c1.2.2 3 .2 4 0 .9-.3-.1-.5-2.3-.4-2.2 0-3 .2-1.7.4zM146.8 142.7c.7.3 1.6.2 1.9-.1.4-.3-.2-.6-1.3-.5-1.1 0-1.4.3-.6.6zM116.3 138.7c.9.2 2.3.2 3 0 .6-.3-.1-.5-1.8-.5-1.6 0-2.2.2-1.2.5zM90.3 90.7c.9.2 2.3.2 3 0 .6-.3-.1-.5-1.8-.5-1.6 0-2.2.2-1.2.5zM232.3 118.7c.9.2 2.3.2 3 0 .6-.3-.1-.5-1.8-.5-1.6 0-2.2.2-1.2.5zM234.8 120.7c.7.3 1.6.2 1.9-.1.4-.3-.2-.6-1.3-.5-1.1 0-1.4.3-.6.6zM237 122c-1.1.7-1.1 1-.2 1 .7 0 1.1.4.8.8-.3.5.9.6 2.5.4 1.6-.2 2.8-.9 2.6-1.6-.5-1.5-3.8-1.9-5.7-.6zM213.3 124.7c1.5.2 3.7.2 5 0 1.2-.2 0-.4-2.8-.4-2.7 0-3.8.2-2.2.4zM0 128.4c0 2.4.4 2.6 4.3 2.7l4.2.2-4 .7c-3 .5-3.4.8-1.5 1 2.4.2 2.4.3-.5 1-2.5.6-2 .8 2.5.8 4.2 0 4.9-.2 3-.8-2.3-.7-2.2-.8 1-.9 2.6-.1 3.1-.4 2-1.1-1.2-.8-1.2-1 .5-1 1.9 0 1.9 0 0-1.4-1.1-.7-3.3-1.6-5-2-1.6-.4-3.8-.9-4.7-1.2-1.4-.4-1.8.1-1.8 2zM22 129c2.2.7 2.1.8-1.2.9-2.9.1-3.6.4-3.2 1.6.4.8 1.3 1.5 2.1 1.5s1.1-.5.8-1c-.4-.6 1.3-1 4.2-1.1 2.6-.1 4-.3 3-.6-.9-.2-1.5-.9-1.2-1.4.4-.5-1.1-.9-3.2-.8-3.4.1-3.5.2-1.3.9zM20 140c0 .5.5 1 1 1 .6 0 1-.5 1-1 0-.6-.4-1-1-1-.5 0-1 .4-1 1zM1.5 141.2c2.9 1.7 4.2 1.8 4.2.2 0-.9-1.1-1.4-3.1-1.4-2.9.1-2.9.2-1.1 1.2zM257.6 142c-1.5.5-1.6.9-.7 1.4.7.5 1.8.3 2.4-.3 1.4-1.4.6-2-1.7-1.1zM255.8 146.7c.7.3 1.6.2 1.9-.1.4-.3-.2-.6-1.3-.5-1.1 0-1.4.3-.6.6zM9.8 148.7c.6.2 1.8.2 2.5 0 .6-.3.1-.5-1.3-.5-1.4 0-1.9.2-1.2.5zM257.8 148.7c.7.3 1.6.2 1.9-.1.4-.3-.2-.6-1.3-.5-1.1 0-1.4.3-.6.6zM4 151c0 1.3 9 1.3 11 0 1.1-.7-.3-1-4.7-1-3.6 0-6.3.4-6.3 1zM18.4 152c-1.4.5-.9.9 2 1.4 2.2.4 4.3.3 4.8-.2 1.2-1.2-4.2-2.1-6.8-1.2zM230.6 155.5c-.4 1.2.3 1.5 3.2 1.4 2 0 3.1-.3 2.4-.6-.6-.2-1-.8-.8-1.2.3-.4-.6-.8-1.9-.9-1.3-.1-2.6.5-2.9 1.3zM257 159c0 .5.7 1 1.5 1s1.5-.5 1.5-1c0-.6-.7-1-1.5-1s-1.5.4-1.5 1zM245.8 160.7c.7.3 1.6.2 1.9-.1.4-.3-.2-.6-1.3-.5-1.1 0-1.4.3-.6.6zM252.8 160.7c.7.3 1.6.2 1.9-.1.4-.3-.2-.6-1.3-.5-1.1 0-1.4.3-.6.6zM28.3 162.7c.9.2 2.3.2 3 0 .6-.3-.1-.5-1.8-.5-1.6 0-2.2.2-1.2.5zM29.8 164.7c.6.2 1.8.2 2.5 0 .6-.3.1-.5-1.3-.5-1.4 0-1.9.2-1.2.5zM32.8 166.7c1.2.2 3 .2 4 0 .9-.3-.1-.5-2.3-.4-2.2 0-3 .2-1.7.4zM.7 168.7c-1.8 1.7-.2 2.3 5.9 2.3 5.8 0 6.5-.2 5.4-1.5-.7-.8-2.2-1.5-3.4-1.5-1.7 0-1.8.2-.6 1 1.2.8.9 1-1.2 1-1.6 0-2.8-.5-2.8-1 0-1.1-2.3-1.4-3.3-.3zM234.8 168.7c.7.3 1.6.2 1.9-.1.4-.3-.2-.6-1.3-.5-1.1 0-1.4.3-.6.6zM17 171c0 .5-1.1 1-2.5 1-2.6 0-3.3 1.4-1.4 2.6.6.3 1.6.1 2.2-.5 1.4-1.4 4-1.5 3.2-.1-.4.6.5 1 1.9 1s2.6-.3 2.7-.8c0-.4.2-1.5.4-2.5.3-1.3-.4-1.7-3.1-1.7-1.9 0-3.4.4-3.4 1zM231.8 170.7c1.2.2 3 .2 4 0 .9-.3-.1-.5-2.3-.4-2.2 0-3 .2-1.7.4zM.8 174.7c.7.3 1.6.2 1.9-.1.4-.3-.2-.6-1.3-.5-1.1 0-1.4.3-.6.6zM248.8 174.7c.7.3 1.6.2 1.9-.1.4-.3-.2-.6-1.3-.5-1.1 0-1.4.3-.6.6zM239.7 183.7c.6 1.4 4.3 1.8 4.3.4 0-.5-1.1-1.1-2.4-1.3-1.7-.4-2.3-.1-1.9.9zM16 184.8c.1.9 2.6 4.2 3.3 4.2.2 0 .7-.6 1-1.4.3-.8-.5-1.8-1.9-2.5-1.3-.6-2.4-.7-2.4-.3zM30.8 184.7c2.2.3 3 .8 2.5 1.6-.5.9-.3.9.8.1.8-.6 2.1-1.4 2.9-1.7.8-.3-1-.5-4-.5-3.3.1-4.2.3-2.2.5zM232 185.5c0 1 1 1.5 3.1 1.5 2.7 0 3-.2 1.9-1.5-.7-.8-2.1-1.5-3.1-1.5-1.1 0-1.9.7-1.9 1.5zM227.5 189.7c-.3.9-.4 1.7-.2 1.9.2.2 3.8.6 8 .9 7.8.5 8.9-.1 6-3.2-1.7-1.9-13-1.5-13.8.4zM19.8 192.7c.7.3 1.6.2 1.9-.1.4-.3-.2-.6-1.3-.5-1.1 0-1.4.3-.6.6zM25.5 193c.3.5 1 1 1.6 1 .5 0 .9-.5.9-1 0-.6-.7-1-1.6-1-.8 0-1.2.4-.9 1zM256 193c0 .5-.7 1-1.5 1s-1.5.4-1.5 1c0 .5-1.9 1-4.2 1.1-2.4 0-3.7.3-3 .6.6.2 1 .9.6 1.4-.3.5 1.1.9 3 .9 2 0 3.6-.5 3.6-1 0-.6 1.6-1 3.5-1 3.1 0 3.5-.3 3.5-2.5 0-1.8-.5-2.5-2-2.5-1.1 0-2 .4-2 1zM19.4 194.9c.4.5 0 1.1-.6 1.4-3 1 .4 1.8 3.9.9 2.1-.5 3-1 2.1-1.1-1-.1-1.8-.6-1.8-1.1 0-.6-.9-1-2.1-1-1.1 0-1.8.4-1.5.9zM240.8 194.7c.7.3 1.6.2 1.9-.1.4-.3-.2-.6-1.3-.5-1.1 0-1.4.3-.6.6zM39 197c0 .5-.7 1-1.5 1s-1.5.4-1.5.9-.9 1.1-2.1 1.4c-2.5.7-1.6 2.7 1.1 2.7 1 0 2.2.4 2.5 1 .3.5 1.5 1 2.6 1s1.8.4 1.4.9c-.8 1.5 5.6 2.4 8.5 1.2 1.7-.7 2-1 .8-1-1-.1-1.8-.6-1.8-1.1 0-.6-1.5-1-3.2-1.1-1.8 0-2.7-.3-2-.6.6-.2 1-.9.6-1.4-.3-.5 0-.9.6-.9.7 0 .5-.6-.4-1.5-.8-.8-2.3-1.5-3.3-1.5-1.5 0-1.6-.2-.3-1s1.2-1-.2-1c-1 0-1.8.4-1.8 1zm-.3 4.6c-.3.3-1.2.4-1.9.1-.8-.3-.5-.6.6-.6 1.1-.1 1.7.2 1.3.5zM228.3 197.5c0 1.1 1.1 1.5 4.1 1.4 2.9-.1 3.4-.3 1.6-.7-2.3-.4-2.4-.5-.5-1.3 1.6-.6 1.3-.8-1.6-.8-2.5-.1-3.6.3-3.6 1.4zM238 199c0 .5.7 1 1.6 1 .8 0 1.2-.5.9-1-.3-.6-1-1-1.6-1-.5 0-.9.4-.9 1zM254.4 198.9c.5.8 5.6.3 5.6-.5 0-.2-1.4-.4-3.1-.4-1.6 0-2.8.4-2.5.9zM223.2 201.2c.3.7 1.8 1.4 3.4 1.5 1.6.1 2.1-.1 1.1-.3-.9-.3-1.5-1-1.2-1.5.4-.5-.3-.9-1.5-.9-1.3 0-2 .5-1.8 1.2zM234 200.9c0 .5-.8 1.2-1.7 1.4-1 .3.5.5 3.2.6 4.6 0 4.8-.1 3.1-1.4-2.2-1.7-4.6-2-4.6-.6zM24.6 203.5c-.3.9 0 1.5.9 1.5.8 0 1.5-.7 1.5-1.5s-.4-1.5-.9-1.5-1.1.7-1.5 1.5zM228.3 204.7c.9.2 1.7.9 1.7 1.4 0 .5 2.4.8 5.3.7 5-.1 5-.2 1-.5-2.4-.2-4.3-.8-4.3-1.4 0-.5-1.2-.8-2.7-.8-1.7.1-2.1.3-1 .6zM6 207c0 .5.5 1 1.1 1 .5 0 .7-.5.4-1-.3-.6-.8-1-1.1-1-.2 0-.4.4-.4 1zM243.8 206.7c.7.3 1.6.2 1.9-.1.4-.3-.2-.6-1.3-.5-1.1 0-1.4.3-.6.6zM231.8 208.7c.7.3 1.6.2 1.9-.1.4-.3-.2-.6-1.3-.5-1.1 0-1.4.3-.6.6zM236.8 208.7c.6.2 1.8.2 2.5 0 .6-.3.1-.5-1.3-.5-1.4 0-1.9.2-1.2.5zM58.3 213.4c-.6.8-1 1.7-.7 2 .2.3-.2.2-.8-.4-1.8-1.5-4.8-1.2-4.8.5 0 1.1 1.2 1.5 4.6 1.5 2.7 0 4.3-.4 3.9-1-.3-.6.1-1 1-1s1.4-.4 1-.9c-.3-.5.3-1.2 1.2-1.4 1-.3.5-.5-1.2-.5-1.6-.1-3.5.5-4.2 1.2zM249 213c0 .5.5 1 1 1 .6 0 1-.5 1-1 0-.6-.4-1-1-1-.5 0-1 .4-1 1zM2.3 214.7c.9.2 2.3.2 3 0 .6-.3-.1-.5-1.8-.5s-2.2.2-1.2.5zM17.8 214.7c.6.2 1.8.2 2.5 0 .6-.3.1-.5-1.3-.5-1.4 0-1.9.2-1.2.5zM22 217.5c0 .8.5 1.5 1 1.5.6 0 1-.4 1-.9s1-1.2 2.3-1.4c1.6-.3 1.3-.5-1-.6-2.3-.1-3.3.3-3.3 1.4zM64.8 216.7c.6.2 1.8.2 2.5 0 .6-.3.1-.5-1.3-.5-1.4 0-1.9.2-1.2.5zM224.4 217.5c1.5.8 3.8 1.5 5 1.4 2 0 2-.1.1-.8l-2-.8 2-.5c1.1-.3-.2-.6-3-.7l-5-.1 2.9 1.5zM198.8 220.7c.7.3 1.6.2 1.9-.1.4-.3-.2-.6-1.3-.5-1.1 0-1.4.3-.6.6zM223 221.5c0 .8.7 1.5 1.5 1.5s1.5.4 1.5 1c0 .5 1 .9 2.3.9 1.7-.1 1.8-.2.4-.6-.9-.2-1.5-.9-1.2-1.4.4-.5-.4-.9-1.7-.9-1.8 0-2-.2-.8-1 1.3-.8 1.2-1-.2-1-1 0-1.8.7-1.8 1.5zM236.8 222.7c-3.9 1-1.5 2.3 4 2.2 3.1-.1 4.7-.4 3.4-.6-1.2-.2-2-.9-1.7-1.4.6-.9-2.6-1-5.7-.2zM247.3 225.3c0 .8 1.5 1.4 4 1.6 3.5.2 3.9 0 2.7-1.3-1.5-1.9-6.7-2.1-6.7-.3zM219.8 226.7c.7.3 1.6.2 1.9-.1.4-.3-.2-.6-1.3-.5-1.1 0-1.4.3-.6.6zM223 228.9c0 .7-1.2 1.2-7.7 2.6-.7.2-1.3-.1-1.3-.6s-.9-.9-2.1-.9c-2.4 0-1.6 1.8 1.5 3 1.5.6 1.6.9.5.9-2.7.1-4.4 2.8-2.9 4.6 1 1.2 1 1.5-.1 1.5-1.2 0-1.2.2 0 .9 1.1.7 1 1-.5 1.4-2.4.6 3.2 1 10.6.8 4-.1 5.1.1 4 .8-1.2.9-.9 1.1 1.3 1.1 1.5 0 2.7-.2 2.7-.3 0-1.1-4-4.7-5.2-4.7-1.9 0-6-3.9-5.5-5.3.4-1.4 5.7-2.2 5.7-.9 0 .5-.3 1.2-.7 1.6-1.7 1.6-1 3.6 1.2 3.6 1.3 0 3 .3 3.8.6.8.3 2.3-.3 3.2-1.3 1.7-1.6 1.7-1.8.2-2.1-.9-.2-1.7-.8-1.7-1.3s-1-.9-2.2-.9c-1.7 0-1.9-.3-.9-.9 1.1-.7 1.1-.9 0-1.4-.8-.3-.5-.6.8-.6 3.4-.1 1.7-3.1-1.8-3.1-1.6 0-2.9.4-2.9.9zM12.8 230.7c.7.3 1.6.2 1.9-.1.4-.3-.2-.6-1.3-.5-1.1 0-1.4.3-.6.6zM13.8 232.7c.6.2 1.8.2 2.5 0 .6-.3.1-.5-1.3-.5-1.4 0-1.9.2-1.2.5zM238.5 233c-.3.5.1 1 .9 1s1.8-.5 2.1-1c.3-.6-.1-1-.9-1s-1.8.4-2.1 1zM251.5 234c-.3.5.3 1 1.5 1s1.8-.5 1.5-1c-.3-.6-1-1-1.5-1s-1.2.4-1.5 1zM202.6 237.5c.4 1 1 1.2 1.8.6.6-.5 2-1.1 3.1-1.4 1.2-.3.4-.5-1.7-.6-3-.1-3.6.2-3.2 1.4zM256.8 236.7c.6.2 1.8.2 2.5 0 .6-.3.1-.5-1.3-.5-1.4 0-1.9.2-1.2.5zM83.8 238.7c.7.3 1.6.2 1.9-.1.4-.3-.2-.6-1.3-.5-1.1 0-1.4.3-.6.6zM7.8 240.7c.7.3 1.6.2 1.9-.1.4-.3-.2-.6-1.3-.5-1.1 0-1.4.3-.6.6zM89 241c1.3.8 1.2 1-.2 1-1 0-1.8.5-1.8 1 0 1.4 2.3 2.2 5.1 1.8 2.1-.3 2.2-.4.6-1.9-.9-.9-1.4-1.8-1.2-2.1.2-.2-.6-.5-1.8-.5-1.7-.2-1.9 0-.7.7zM94.3 240.7c.9.2 2.3.2 3 0 .6-.3-.1-.5-1.8-.5-1.6 0-2.2.2-1.2.5zM182.2 242.5c.9 2 1.8 2.5 5 2.5 2.4 0 3.7-.4 3.3-1-.3-.6.4-1 1.6-1 2.2 0 2.2 0 .3-1.5-1-.8-4-1.5-6.6-1.5-4.7 0-4.7 0-3.6 2.5zM5.8 242.7c.6.2 1.8.2 2.5 0 .6-.3.1-.5-1.3-.5-1.4 0-1.9.2-1.2.5zM129.8 242.7c.7.3 1.6.2 1.9-.1.4-.3-.2-.6-1.3-.5-1.1 0-1.4.3-.6.6zM133.8 242.7c.6.2 1.8.2 2.5 0 .6-.3.1-.5-1.3-.5-1.4 0-1.9.2-1.2.5zM1.6 245.5c.4.8 1.5 1.5 2.6 1.5 1 0 1.7-.4 1.4-.9-.4-.5 0-1.2.6-1.4.7-.3-.1-.6-1.9-.6-2.5-.1-3.1.2-2.7 1.4zM12.3 244.7c.9.2 2.3.2 3 0 .6-.3-.1-.5-1.8-.5-1.6 0-2.2.2-1.2.5zM149.5 245c2.8 1.2 4.5 1.2 4.5 0 0-.6-1.5-1-3.2-.9-2.8 0-3 .2-1.3.9zM158 245.5c0 .8.6 1.5 1.4 1.5.8 0 1.7.6 2 1.2.3.9.8.8 1.6-.5.6-.9 1.8-1.7 2.5-1.7.8 0 1.5-.5 1.5-1 0-.6-2-1-4.5-1-3.3 0-4.5.4-4.5 1.5zM207.8 244.7c.7.3 1.6.2 1.9-.1.4-.3-.2-.6-1.3-.5-1.1 0-1.4.3-.6.6zM31 247.5c-1 1.3-.9 1.5.9 1.5 1.2 0 2.1-.6 2.1-1.5 0-.8-.4-1.5-.9-1.5s-1.4.7-2.1 1.5zM112.6 246.9c-.8 1.2.4 4.1 1.6 4.1.9 0 4.8-3.8 4.8-4.7 0-.7-5.9-.2-6.4.6zM132.8 246.7c.6.2 1.8.2 2.5 0 .6-.3.1-.5-1.3-.5-1.4 0-1.9.2-1.2.5zM173.3 246.7c.9.2 2.3.2 3 0 .6-.3-.1-.5-1.8-.5-1.6 0-2.2.2-1.2.5zM226.5 247.1c-1 1.5.3 2.5 1.6 1.2.7-.7.7-1.3.1-1.7-.6-.3-1.4-.1-1.7.5zM51 249c-1.3 1.1-1.9 2-1.4 2s.1.5-.8 1.1c-2.4 1.4-2.3 2.9.3 2.9 1.1 0 1.7.4 1.4 1-.4.6 1 1 3.6 1 4.1 0 4.2-.1 2.5-1.9-1.3-1.4-1.6-2.8-1.1-5 .8-3.7-1-4.2-4.5-1.1zM136.5 248c-1.8.8-1.8.9.5.9 2 .1 2.2.3 1 1.1-1.3.8-1.2 1 .3 1 1 0 2.5-.7 3.3-1.5.9-.8 1.1-1.5.6-1.5-.6 0-1.6-.2-2.4-.4-.7-.3-2.2-.1-3.3.4zM147.5 248c-1.5.6-.7.9 3 .9s4.5-.3 3-.9c-1.1-.5-2.4-.9-3-.9-.5 0-1.9.4-3 .9zM177 249.5c-1 1.2-.9 1.5.8 1.5 1.1 0 2.2-.7 2.6-1.5.3-.9 0-1.5-.8-1.5-.7 0-1.9.7-2.6 1.5zM182.6 249.5c.4.9 1.9 1.5 4.2 1.5 3.4 0 3.5-.1 1.6-1.5-2.6-2-6.5-2-5.8 0zM129.5 250c-.3.5.3 1 1.5 1s1.8-.5 1.5-1c-.3-.6-1-1-1.5-1s-1.2.4-1.5 1zM.2 252.2c.2 1.4 1.1 2.4 2.3 2.6 1.7.3 1.7.1.5-.7-1.3-.9-1.3-1.1.2-1.1 1.1 0 1.5-.5 1.2-1.5-.4-.8-1.5-1.5-2.6-1.5-1.4 0-1.9.6-1.6 2.2zM11.6 252.2c-2 2.8-1.3 3.5 1.8 1.8 1.4-.7 2.2-1.8 1.9-2.6-.7-2-2-1.7-3.7.8zM192 251c1.9 1.3 3 1.3 3 0 0-.6-1-1-2.2-1-1.9 0-2 .2-.8 1zM133 253.5c0 .8.9 1.5 2 1.5s2-.7 2-1.5-.9-1.5-2-1.5-2 .7-2 1.5zM237.3 252.7c.9.2 2.5.2 3.5 0 .9-.3.1-.5-1.8-.5-1.9 0-2.7.2-1.7.5zM96.5 254c-.3.5.1 1 .9 1 .9 0 1.6-.5 1.6-1 0-.6-.4-1-.9-1-.6 0-1.3.4-1.6 1zM188 255c0 .5.7 1 1.5 1s1.5-.5 1.5-1c0-.6-.7-1-1.5-1s-1.5.4-1.5 1zM198.5 255c.4.6-.8 1-2.8 1-2.4 0-3.4.5-3.4 1.5 0 1.3 1.5 1.5 9.1 1.3 5.4-.2 9-.7 8.9-1.3-.3-1.4-5.3-1.9-6.6-.6-.6.6-1.8 1.1-2.6 1-1 0-.7-.4.7-.9 3.2-1.3 2.7-3-.9-3-1.7 0-2.8.4-2.4 1zM238.8 254.7c.6.2 1.8.2 2.5 0 .6-.3.1-.5-1.3-.5-1.4 0-1.9.2-1.2.5zM253.6 257.5c.8 1.9 3.4 1.9 3.4 0 0-.8-.9-1.5-2-1.5-1.3 0-1.8.5-1.4 1.5z"/></svg>